<?xml version="1.0" encoding="utf-8"?>
<!-- Generator: Adobe Illustrator 16.0.0, SVG Export Plug-In . SVG Version: 6.00 Build 0)  -->
<!DOCTYPE svg PUBLIC "-//W3C//DTD SVG 1.1//EN" "http://www.w3.org/Graphics/SVG/1.1/DTD/svg11.dtd">
<svg version="1.1" id="Layer_1" xmlns="http://www.w3.org/2000/svg" xmlns:xlink="http://www.w3.org/1999/xlink" x="0px" y="0px"
	 width="640px" height="480px" viewBox="0 0 640 480" enable-background="new 0 0 640 480" xml:space="preserve">
<path fill="#547BBC" d="M56.796,101.748c25.515,0,46.201-20.683,46.201-46.199c0-25.514-20.686-46.199-46.201-46.199
	S10.597,30.035,10.597,55.549C10.597,81.065,31.282,101.748,56.796,101.748"/>
<path fill="#FFFFFF" d="M45.651,47.726h4.776v-4.642c0-2.047,0.052-5.204,1.539-7.158c1.566-2.071,3.716-3.478,7.414-3.478
	c6.026,0,8.563,0.859,8.563,0.859l-1.193,7.076c0,0-1.991-0.576-3.848-0.576c-1.858,0-3.521,0.666-3.521,2.523v5.396h7.617
	l-0.532,6.912H59.38v24.011h-8.953V54.638h-4.776V47.726z"/>
</svg>
