<?xml version="1.0" encoding="utf-8"?>
<!-- Generator: Adobe Illustrator 16.0.0, SVG Export Plug-In . SVG Version: 6.00 Build 0)  -->
<!DOCTYPE svg PUBLIC "-//W3C//DTD SVG 1.1//EN" "http://www.w3.org/Graphics/SVG/1.1/DTD/svg11.dtd">
<svg version="1.1" id="Layer_1" xmlns="http://www.w3.org/2000/svg" xmlns:xlink="http://www.w3.org/1999/xlink" x="0px" y="0px"
	 width="640px" height="480px" viewBox="0 0 640 480" enable-background="new 0 0 640 480" xml:space="preserve">
<path fill="#FFFFFF" d="M61.807,115.379c29.274,0,53.015-23.738,53.015-53.017c0-29.277-23.74-53.013-53.015-53.013
	c-29.284,0-53.021,23.736-53.021,53.013C8.786,91.642,32.523,115.379,61.807,115.379"/>
<g>
	<path fill="#E1408F" d="M88.312,62.363c0,6.449-5.224,11.679-11.674,11.679c-6.459,0-11.683-5.23-11.683-11.679
		c0-6.447,5.224-11.677,11.683-11.677C83.088,50.686,88.312,55.916,88.312,62.363z"/>
	<path fill="#396DB3" d="M58.65,62.363c0,6.449-5.224,11.679-11.683,11.679c-6.447,0-11.671-5.23-11.671-11.679
		c0-6.447,5.224-11.677,11.671-11.677C53.427,50.686,58.65,55.916,58.65,62.363z"/>
</g>
</svg>
