<?xml version="1.0" encoding="utf-8"?>
<!-- Generator: Adobe Illustrator 16.0.0, SVG Export Plug-In . SVG Version: 6.00 Build 0)  -->
<!DOCTYPE svg PUBLIC "-//W3C//DTD SVG 1.1//EN" "http://www.w3.org/Graphics/SVG/1.1/DTD/svg11.dtd">
<svg version="1.1" id="Layer_1" xmlns="http://www.w3.org/2000/svg" xmlns:xlink="http://www.w3.org/1999/xlink" x="0px" y="0px"
	 width="640px" height="480px" viewBox="0 0 640 480" enable-background="new 0 0 640 480" xml:space="preserve">
<g>
	<path fill="#231F20" d="M102.872,58.954c0,25.639-20.775,46.641-46.414,46.641C30.774,105.594,10,84.592,10,58.954
		c0-25.684,20.774-46.458,46.458-46.458C82.097,12.495,102.872,33.27,102.872,58.954z M68.051,96.866
		c15.91-5.682,27.548-20.365,27.548-37.913c0-21.638-17.547-39.185-39.14-39.185c-21.638,0-39.185,17.547-39.185,39.185
		c0,17.729,11.819,32.503,28.002,37.913v-7.455c0-4.455,1.864-6.819,3.728-8.092c-10.092-1.045-20.911-4.682-20.911-22.138
		c0-4.91,1.728-8.91,4.591-12.001c-0.455-1.182-1.955-5.728,0.455-11.865c0,0,3.773-1.228,12.319,4.591c3.546-1,7.41-1.5,11.183-1.5
		c3.818,0,7.637,0.5,11.228,1.5c8.546-5.819,12.274-4.591,12.274-4.591c2.455,6.137,0.909,10.683,0.455,11.865
		c2.864,3.091,4.591,7.091,4.591,12.001c0,17.456-10.819,21.093-20.911,22.138c1.864,1.273,3.773,3.637,3.773,8.092V96.866z"/>
</g>
</svg>
