<?xml version="1.0" encoding="utf-8"?>
<!-- Generator: Adobe Illustrator 16.0.0, SVG Export Plug-In . SVG Version: 6.00 Build 0)  -->
<!DOCTYPE svg PUBLIC "-//W3C//DTD SVG 1.1//EN" "http://www.w3.org/Graphics/SVG/1.1/DTD/svg11.dtd">
<svg version="1.1" id="Layer_1" xmlns="http://www.w3.org/2000/svg" xmlns:xlink="http://www.w3.org/1999/xlink" x="0px" y="0px"
	 width="640px" height="480px" viewBox="0 0 640 480" enable-background="new 0 0 640 480" xml:space="preserve">
<path fill="#78CBEF" d="M57.899,108.047c27.254,0,49.349-22.093,49.349-49.349c0-27.253-22.095-49.349-49.349-49.349
	c-27.255,0-49.35,22.096-49.35,49.349C8.549,85.954,30.644,108.047,57.899,108.047"/>
<path fill="#FFFFFF" d="M82.657,45.771c-1.818,0.806-3.774,1.352-5.824,1.597c2.095-1.255,3.703-3.242,4.458-5.609
	c-1.961,1.162-4.128,2.004-6.442,2.458c-1.846-1.971-4.484-3.202-7.402-3.202c-5.598,0-10.139,4.542-10.139,10.142
	c0,0.796,0.086,1.568,0.261,2.309c-8.428-0.423-15.899-4.457-20.904-10.597c-0.873,1.503-1.373,3.244-1.373,5.103
	c0,3.515,1.791,6.621,4.512,8.441c-1.662-0.051-3.228-0.511-4.596-1.267v0.125c0,4.916,3.495,9.015,8.138,9.944
	c-0.852,0.238-1.747,0.357-2.673,0.357c-0.653,0-1.291-0.061-1.907-0.18c1.289,4.028,5.034,6.962,9.473,7.04
	c-3.471,2.722-7.845,4.342-12.595,4.342c-0.819,0-1.628-0.045-2.42-0.14c4.488,2.875,9.82,4.555,15.546,4.555
	c18.657,0,28.855-15.452,28.855-28.855c0-0.44-0.009-0.88-0.027-1.312C79.58,49.59,81.301,47.804,82.657,45.771"/>
</svg>
