<?xml version="1.0" encoding="utf-8"?>
<!-- Generator: Adobe Illustrator 16.0.0, SVG Export Plug-In . SVG Version: 6.00 Build 0)  -->
<!DOCTYPE svg PUBLIC "-//W3C//DTD SVG 1.1//EN" "http://www.w3.org/Graphics/SVG/1.1/DTD/svg11.dtd">
<svg version="1.1" id="Layer_1" xmlns="http://www.w3.org/2000/svg" xmlns:xlink="http://www.w3.org/1999/xlink" x="0px" y="0px"
	 width="640px" height="480px" viewBox="0 0 640 480" enable-background="new 0 0 640 480" xml:space="preserve">
<path fill="#CCCBCB" d="M48.835,93.084c24.266,0,43.936-19.672,43.936-43.938c0-24.264-19.67-43.935-43.936-43.935
	c-24.269,0-43.937,19.671-43.937,43.935C4.898,73.412,24.566,93.084,48.835,93.084"/>
<path id="path3898" d="M44.37,39.844c0,0-0.853-1.737-1.143-2.313c-1.942-3.848-1.899-4.053-3.862-4.311
	c-0.55-0.072-0.833-0.143-0.833-0.415v-1.217l0.164-0.119c3.547-0.005,11.433-0.005,11.433-0.005l0.303,0.101v1.212
	c0,0.277-0.197,0.419-0.601,0.419l-0.827,0.12c-2.097,0.163-1.753,1.019-0.361,3.792l13.214,27.035l0.452,0.124L74.04,36.425
	c0.406-1.122,0.343-1.917-0.179-2.385c-0.524-0.457-0.896-0.727-2.255-0.782l-1.1-0.057c-0.136,0-0.265-0.049-0.389-0.139
	c-0.119-0.087-0.184-0.201-0.184-0.338v-1.159l0.169-0.119c3.305,0,13.252,0,13.252,0l0.136,0.119v1.159
	c0,0.314-0.179,0.472-0.532,0.472c-1.738,0.078-3.025,0.454-3.857,1.127c-0.837,0.677-1.486,1.611-1.955,2.823
	c0,0-10.787,24.694-14.48,32.902c-1.413,2.69-2.803,2.443-4.026-0.077c-2.581-5.317-9.849-21.445-9.849-21.445L44.37,39.844
	L44.37,39.844z"/>
<path id="path3900" d="M65.543,31.451c0,0-7.455-0.024-10.775,0l-0.164,0.117v1.155c0,0.143,0.058,0.254,0.182,0.339
	c0.124,0.091,0.247,0.138,0.383,0.138l0.532,0.059c1.357,0.056,1.98,0.411,2.167,0.635c0.323,0.396,0.484,0.824-0.3,2.535
	L43.65,64.191l-0.366-0.096c0,0-9.97-21.021-12.856-28.053c-0.3-0.728-0.437-1.268-0.437-1.601c0-0.715,0.646-1.101,1.935-1.155
	l1.503-0.062c0.399,0,0.601-0.154,0.601-0.473v-1.154l-0.134-0.118c0,0-11.943-0.015-14.407,0l-0.136,0.118v1.212
	c0,0.22,0.277,0.354,0.833,0.415c1.516,0.081,2.513,0.323,2.992,0.725c0.477,0.408,0.981,1.437,1.652,3.04
	c3.625,8.706,11.325,24.241,15.074,33.088c1.08,2.416,2.437,2.79,4.084-0.076c2.856-5.292,10.593-21.455,10.593-21.455l6.092-11.396
	c0.709-1.204,1.395-2.277,1.741-2.778c0.636-0.915,0.992-1.087,2.73-1.168c0.353,0,0.532-0.159,0.532-0.478v-1.154L65.543,31.451
	L65.543,31.451z"/>
</svg>
